# File created by Blade
# Date/Time:  Thu Jan 22 19:49:10 2015
#---------------------------------------------------------
:version 1.10
:name HOM
:units
  mass 1.0
  length 1.000000
  angle deg
:documentation
     Acclaim Skeleton File
:root
   axis xyz
   order TX TY TZ RX RY RZ
   position 0.000000 0.000000 0.000000
   orientation 0 0 0
:bonedata
   begin
      id 1
      name RightUpLeg_dum
      direction -1.000000 0.000000 0.000000
      length 4.478084
      axis 0.0 0.0 0.0 xyz
   end
   begin
      id 2
      name LeftUpLeg_dum
      direction 1.000000 0.000000 0.000000
      length 4.478084
      axis 0.0 0.0 0.0 xyz
   end
   begin
      id 3
      name Spine_dum
      direction 0.000000 1.000000 0.000000
      length 6.068208
      axis 0.0 0.0 0.0 xyz
   end
   begin
      id 4
      name RightUpLeg
      direction 0.000000 -1.000000 0.000000
      length 16.405774
      axis 0.0 0.0 0.0 xyz
      dof rx ry rz
   end
   begin
      id 5
      name RightLeg
      direction 0.000000 -1.000000 0.000000
      length 14.644143
      axis 0.0 0.0 0.0 xyz
      dof rx ry rz
   end
   begin
      id 6
      name RightFoot
      direction 0.000000 -0.258819 0.965926
      length 5.806150
      axis 15.0 0.0 0.0 xyz
      dof rx ry rz
   end
   begin
      id 7
      name RightToeBase
      direction 0.000000 0.000000 1.000000
      length 2.952750
      axis 0.0 0.0 0.0 xyz
      dof rx ry rz
   end
   begin
      id 8
      name LeftUpLeg
      direction 0.000000 -1.000000 0.000000
      length 16.405774
      axis 0.0 0.0 0.0 xyz
      dof rx ry rz
   end
   begin
      id 9
      name LeftLeg
      direction 0.000000 -1.000000 0.000000
      length 14.644143
      axis 0.0 0.0 0.0 xyz
      dof rx ry rz
   end
   begin
      id 10
      name LeftFoot
      direction 0.000000 -0.258819 0.965926
      length 5.806150
      axis 15.0 0.0 0.0 xyz
      dof rx ry rz
   end
   begin
      id 11
      name LeftToeBase
      direction 0.000000 0.000000 1.000000
      length 2.952750
      axis 0.0 0.0 0.0 xyz
      dof rx ry rz
   end
   begin
      id 12
      name Spine
      direction 0.000000 1.000000 0.000000
      length 0.000000
      axis 0.0 0.0 0.0 xyz
      dof rx ry rz
   end
   begin
      id 13
      name Spine_dum1
      direction 0.000000 1.000000 0.000000
      length 10.013923
      axis 0.0 0.0 0.0 xyz
   end
   begin
      id 14
      name Spine_dum2
      direction 0.000000 1.000000 0.000000
      length 10.013923
      axis 0.0 0.0 0.0 xyz
   end
   begin
      id 15
      name Spine_dum3
      direction 0.000000 1.000000 0.000000
      length 15.777476
      axis 0.0 0.0 0.0 xyz
   end
   begin
      id 16
      name RightShoulder
      direction -1.000000 0.000000 0.000000
      length 7.190220
      axis 0.0 0.0 90.0 xyz
      dof rx ry rz
   end
   begin
      id 17
      name RightArm
      direction -1.000000 0.000000 0.000000
      length 10.177469
      axis 0.0 0.0 90.0 xyz
      dof rx ry rz
   end
   begin
      id 18
      name RightForeArm
      direction -1.000000 0.000000 0.000000
      length 8.392114
      axis 0.0 0.0 90.0 xyz
      dof ry rz rx
   end
   begin
      id 19
      name RightHand
      direction -1.000000 0.000000 0.000000
      length 0.000000
      axis 0.0 0.0 90.0 xyz
      dof rx ry rz
   end
   begin
      id 20
      name RightHand_dum1
      direction -1.000000 0.000000 0.000000
      length 3.937000
      axis 0.0 0.0 90.0 xyz
   end
   begin
      id 21
      name RightHand_dum2
      direction 0.000000 0.000000 0.000000
      length 0.000000
      axis 0.0 0.0 90.0 xyz
   end
   begin
      id 22
      name RightHandThumb1
      direction 0.000000 0.000000 1.000000
      length 3.937000
      axis 0.0 0.0 90.0 xyz
      dof rx rz ry
   end
   begin
      id 23
      name LeftShoulder
      direction 1.000000 0.000000 0.000000
      length 7.190220
      axis 0.0 0.0 -90.0 xyz
      dof rx ry rz
   end
   begin
      id 24
      name LeftArm
      direction 1.000000 0.000000 0.000000
      length 10.177469
      axis 0.0 0.0 -90.0 xyz
      dof rx ry rz
   end
   begin
      id 25
      name LeftForeArm
      direction 1.000000 0.000000 0.000000
      length 8.392114
      axis 0.0 0.0 -90.0 xyz
      dof ry rz rx
   end
   begin
      id 26
      name LeftHand
      direction 1.000000 0.000000 0.000000
      length 0.000000
      axis 0.0 0.0 -90.0 xyz
      dof rx ry rz
   end
   begin
      id 27
      name LeftHand_dum1
      direction 1.000000 0.000000 0.000000
      length 3.937000
      axis 0.0 0.0 -90.0 xyz
   end
   begin
      id 28
      name LeftHand_dum2
      direction 0.000000 0.000000 0.000000
      length 0.000000
      axis 0.0 0.0 -90.0 xyz
   end
   begin
      id 29
      name LeftHandThumb1
      direction 0.000000 0.000000 1.000000
      length 3.937000
      axis 0.0 0.0 -90.0 xyz
      dof rx rz ry
   end
   begin
      id 30
      name Head
      direction 0.000000 1.000000 0.000000
      length 4.527550
      axis 0.0 0.0 0.0 xyz
      dof rx ry rz
   end
:hierarchy
   begin
      root RightUpLeg_dum LeftUpLeg_dum Spine_dum
      RightUpLeg_dum RightUpLeg
      LeftUpLeg_dum LeftUpLeg
      Spine_dum Spine
      RightUpLeg RightLeg
      RightLeg RightFoot
      RightFoot RightToeBase
      LeftUpLeg LeftLeg
      LeftLeg LeftFoot
      LeftFoot LeftToeBase
      Spine Spine_dum1 Spine_dum2 Spine_dum3
      Spine_dum1 RightShoulder
      Spine_dum2 LeftShoulder
      Spine_dum3 Head
      RightShoulder RightArm
      RightArm RightForeArm
      RightForeArm RightHand
      RightHand RightHand_dum1 RightHand_dum2
      RightHand_dum2 RightHandThumb1
      LeftShoulder LeftArm
      LeftArm LeftForeArm
      LeftForeArm LeftHand
      LeftHand LeftHand_dum1 LeftHand_dum2
      LeftHand_dum2 LeftHandThumb1
   end

# File created by Blade
# Date/Time:  Thu Jan 22 19:49:01 2015
# Frame Rate: 120.000 fps
#------------------------------------------------------
:FULLY-SPECIFIED
:DEGREES
241
root 0.958433 33.105092 -0.100394 11.339248 -7.554105 3.393694
RightUpLeg -21.352696 -6.869922 -8.356827
RightLeg 27.636071 -0.000000 -0.000000
RightFoot -17.576469 -2.381120 1.818888
RightToeBase -4.909835 -0.000000 0.000000
LeftUpLeg -7.097574 3.992661 -6.707702
LeftLeg 3.022089 -0.000000 -0.000000
LeftFoot -11.905231 0.679698 -11.690358
LeftToeBase 12.120684 -0.000000 -0.000000
Spine -3.053143 -2.086609 -4.177685
RightShoulder -18.370254 -14.839611 -18.102151
RightArm 21.988059 15.736334 62.613060
RightForeArm -15.306483 -0.000000 59.762992
RightHand 22.510765 -0.000000 -26.886783
RightHandThumb1 -24.326973 -0.000000 -32.862282
LeftShoulder -21.648517 4.188676 23.964872
LeftArm 8.281268 -19.120694 -66.125835
LeftForeArm 27.729330 -0.000000 69.801396
LeftHand 3.064084 0.000000 13.158331
LeftHandThumb1 -26.253704 0.000000 33.147579
Head -5.769933 2.133892 -0.492119
242
root 0.948722 33.108525 -0.093197 11.363999 -7.743086 3.367603
RightUpLeg -21.265558 -7.282887 -8.352745
RightLeg 27.215437 -0.000000 -0.000000
RightFoot -17.631316 -2.922841 1.606721
RightToeBase -5.222341 -0.000000 0.000000
LeftUpLeg -7.138353 4.053663 -6.689165
LeftLeg 3.116468 -0.000000 -0.000000
LeftFoot -12.013133 0.796083 -11.801230
LeftToeBase 12.119374 -0.000000 -0.000000
Spine -3.115025 -2.030235 -4.214721
RightShoulder -18.253570 -14.768210 -18.243867
RightArm 22.386266 15.577830 62.498895
RightForeArm -15.391475 0.000000 60.235700
RightHand 22.285604 -0.000000 -27.099861
RightHandThumb1 -24.326973 -0.000000 -32.862282
LeftShoulder -21.660996 4.139537 23.898438
LeftArm 8.596832 -18.807889 -65.865993
LeftForeArm 27.180291 -0.000000 70.128176
LeftHand 2.911858 0.000000 13.519903
LeftHandThumb1 -26.253704 0.000000 33.147579
Head -5.811968 2.282205 -0.588291
243
root 0.937986 33.111930 -0.083689 11.349930 -7.926024 3.352360
RightUpLeg -21.153110 -7.727994 -8.351442
RightLeg 26.786959 -0.000000 -0.000000
RightFoot -17.581229 -3.498485 1.325722
RightToeBase -5.470166 -0.000000 0.000000
LeftUpLeg -7.140258 4.167756 -6.679062
LeftLeg 3.212714 -0.000000 -0.000000
LeftFoot -12.105628 0.846610 -11.913407
LeftToeBase 12.162998 -0.000000 -0.000000
Spine -3.130746 -1.973138 -4.255918
RightShoulder -18.106676 -14.553478 -18.394387
RightArm 22.600965 15.365670 62.196273
RightForeArm -15.561372 0.000000 60.716675
RightHand 22.302812 -0.000000 -26.937103
RightHandThumb1 -24.326973 -0.000000 -32.862282
LeftShoulder -21.676833 4.136431 23.836903
LeftArm 8.986625 -18.774247 -65.826169
LeftForeArm 27.070648 -0.000000 70.462790
LeftHand 2.903758 -0.000000 13.333979
LeftHandThumb1 -26.253704 0.000000 33.147579
Head -5.877772 2.405012 -0.700233
244
root 0.923020 33.116302 -0.073886 11.350094 -8.103040 3.306061
RightUpLeg -21.005734 -8.201012 -8.312751
RightLeg 26.245579 -0.000000 -0.000000
RightFoot -17.384293 -4.117977 0.951044
RightToeBase -5.895285 -0.000000 0.000000
LeftUpLeg -7.162985 4.332277 -6.635518
LeftLeg 3.334711 -0.000000 -0.000000
LeftFoot -12.212360 0.824212 -12.055437
LeftToeBase 12.190670 -0.000000 -0.000000
Spine -3.154386 -1.898637 -4.262140
RightShoulder -18.002758 -14.373618 -18.526867
RightArm 22.856946 15.122154 61.859237
RightForeArm -15.521773 0.000000 61.214581
RightHand 21.852585 -0.000000 -26.685484
RightHandThumb1 -24.326973 -0.000000 -32.862282
LeftShoulder -21.687724 4.061975 23.809911
LeftArm 9.306099 -18.615359 -65.712868
LeftForeArm 26.870212 -0.000000 70.706139
LeftHand 2.939115 -0.000000 13.528676
LeftHandThumb1 -26.253704 0.000000 33.147579
Head -5.970566 2.505946 -0.813589
245
root 0.902968 33.120467 -0.065393 11.329290 -8.287522 3.266827
RightUpLeg -20.860096 -8.665740 -8.281732
RightLeg 25.713847 -0.000000 -0.000000
RightFoot -17.233514 -4.632359 0.739074
RightToeBase -5.899801 -0.000000 0.000000
LeftUpLeg -7.165337 4.377261 -6.581453
LeftLeg 3.458131 -0.000000 -0.000000
LeftFoot -12.302383 0.917609 -12.322463
LeftToeBase 11.877814 -0.000000 -0.000000
Spine -3.143706 -1.837225 -4.292782
RightShoulder -17.841849 -14.142918 -18.670415
RightArm 23.067054 14.912573 61.530415
RightForeArm -15.441176 0.000000 61.680312
RightHand 21.824339 -0.000000 -26.590470
RightHandThumb1 -24.326973 -0.000000 -32.862282
LeftShoulder -21.711902 4.022214 23.760128
LeftArm 9.638813 -18.471406 -65.559699
LeftForeArm 26.717873 -0.000000 71.047311
LeftHand 2.723618 -0.000000 13.529595
LeftHandThumb1 -26.253704 0.000000 33.147579
Head -6.104470 2.598753 -0.899878
246
root 0.881307 33.124238 -0.056662 11.333080 -8.425808 3.220868
RightUpLeg -20.712942 -9.226556 -8.230149
RightLeg 25.135854 -0.000000 -0.000000
RightFoot -17.121144 -5.024876 0.644328
RightToeBase -5.726866 -0.000000 0.000000
LeftUpLeg -7.238006 4.607062 -6.524631
LeftLeg 3.673065 -0.000000 -0.000000
LeftFoot -12.420130 0.768603 -12.438211
LeftToeBase 11.915578 -0.000000 -0.000000
Spine -3.156371 -1.802028 -4.296294
RightShoulder -17.722002 -13.928707 -18.829702
RightArm 23.348252 14.765502 61.274768
RightForeArm -15.432207 -0.000000 62.036567
RightHand 21.965225 -0.000000 -26.493323
RightHandThumb1 -24.326973 -0.000000 -32.862282
LeftShoulder -21.708601 3.919614 23.728057
LeftArm 9.903714 -18.347772 -65.408509
LeftForeArm 26.456289 0.000000 71.323555
LeftHand 2.688231 -0.000000 13.803584
LeftHandThumb1 -26.253704 0.000000 33.147579
Head -6.264772 2.683537 -0.999026
247
root 0.856832 33.127075 -0.044941 11.322133 -8.578814 3.176004
RightUpLeg -20.561597 -9.743926 -8.183669
RightLeg 24.543520 -0.000000 -0.000000
RightFoot -16.999582 -5.430344 0.516354
RightToeBase -5.520414 -0.000000 0.000000
LeftUpLeg -7.270441 4.797290 -6.459586
LeftLeg 3.851720 -0.000000 -0.000000
LeftFoot -12.557581 0.672552 -12.558140
LeftToeBase 12.032315 -0.000000 -0.000000
Spine -3.154924 -1.733826 -4.309618
RightShoulder -17.669036 -13.825581 -18.935809
RightArm 23.767767 14.556656 60.937248
RightForeArm -15.320096 0.000000 62.362719
RightHand 21.912036 -0.000000 -26.438073
RightHandThumb1 -24.326973 -0.000000 -32.862282
LeftShoulder -21.668266 3.812625 23.720619
LeftArm 10.124748 -18.254007 -65.278278
LeftForeArm 26.300655 -0.000000 71.662083
LeftHand 2.762695 -0.000000 13.697865
LeftHandThumb1 -26.253704 0.000000 33.147579
Head -6.464138 2.747849 -1.092209
248
root 0.829022 33.129118 -0.034895 11.310487 -8.701127 3.128859
RightUpLeg -20.396059 -10.231252 -8.150818
RightLeg 23.931254 -0.000000 -0.000000
RightFoot -16.881898 -5.757278 0.465541
RightToeBase -5.396724 -0.000000 0.000000
LeftUpLeg -7.310372 4.934894 -6.387783
LeftLeg 4.046784 -0.000000 -0.000000
LeftFoot -12.710531 0.635535 -12.692997
LeftToeBase 12.076535 -0.000000 -0.000000
Spine -3.131518 -1.687827 -4.311658
RightShoulder -17.584213 -13.624025 -19.083536
RightArm 24.035693 14.319965 60.564935
RightForeArm -15.193495 -0.000000 62.752113
RightHand 21.854306 -0.000000 -26.352893
RightHandThumb1 -24.326973 -0.000000 -32.862282
LeftShoulder -21.641627 3.680003 23.705527
LeftArm 10.334866 -18.166356 -65.135867
LeftForeArm 26.078864 -0.000000 71.996553
LeftHand 2.694280 -0.000000 13.755067
LeftHandThumb1 -26.253704 0.000000 33.147579
Head -6.745504 2.794113 -1.198796
249
root 0.797930 33.131688 -0.027054 11.311168 -8.821517 3.091151
RightUpLeg -20.258178 -10.648014 -8.132282
RightLeg 23.323713 -0.000000 -0.000000
RightFoot -16.683958 -6.103682 0.250191
RightToeBase -5.001549 -0.000000 0.000000
LeftUpLeg -7.375265 5.082222 -6.311675
LeftLeg 4.253723 -0.000000 -0.000000
LeftFoot -12.835428 0.543748 -12.780774
LeftToeBase 12.081981 -0.000000 -0.000000
Spine -3.108617 -1.655964 -4.341984
RightShoulder -17.497061 -13.300013 -19.208925
RightArm 24.228151 14.090601 60.179413
RightForeArm -14.970240 0.000000 63.159016
RightHand 21.766248 -0.000000 -26.070121
RightHandThumb1 -24.326973 -0.000000 -32.862282
LeftShoulder -21.650234 3.570839 23.715646
LeftArm 10.614574 -18.105362 -65.069008
LeftForeArm 25.967798 -0.000000 72.276191
LeftHand 2.714042 -0.000000 13.950347
LeftHandThumb1 -26.253704 0.000000 33.147579
Head -7.084780 2.858586 -1.257151
250
root 0.764972 33.133867 -0.018632 11.318698 -8.940996 3.042971
RightUpLeg -20.108933 -11.067657 -8.113260
RightLeg 22.657647 -0.000000 -0.000000
RightFoot -16.412431 -6.290813 0.064961
RightToeBase -4.818235 -0.000000 0.000000
LeftUpLeg -7.440538 5.145074 -6.213417
LeftLeg 4.460860 -0.000000 -0.000000
LeftFoot -12.996567 0.519378 -12.930855
LeftToeBase 12.144209 -0.000000 -0.000000
Spine -3.095287 -1.591848 -4.342911
RightShoulder -17.465098 -13.079224 -19.328761
RightArm 24.546342 13.862061 59.801622
RightForeArm -14.706718 0.000000 63.512731
RightHand 21.582762 -0.000000 -25.935264
RightHandThumb1 -24.326973 -0.000000 -32.862282
LeftShoulder -21.626063 3.438795 23.689785
LeftArm 10.862917 -18.024191 -64.914957
LeftForeArm 25.764924 0.000000 72.582858
LeftHand 2.826747 -0.000000 13.985893
LeftHandThumb1 -26.253704 0.000000 33.147579
Head -7.461134 2.850043 -1.360455
251
root 0.725772 33.136054 -0.009745 11.325240 -9.077260 2.977174
RightUpLeg -19.925931 -11.325655 -8.110447
RightLeg 21.934709 -0.000000 -0.000000
RightFoot -16.199868 -6.420158 0.028042
RightToeBase -4.518218 -0.000000 0.000000
LeftUpLeg -7.558250 5.591620 -6.126771
LeftLeg 4.779312 -0.000000 -0.000000
LeftFoot -13.135337 0.157860 -12.967759
LeftToeBase 12.262406 -0.000000 -0.000000
Spine -3.069705 -1.550769 -4.334969
RightShoulder -17.369788 -12.825579 -19.467967
RightArm 24.809475 13.660442 59.442434
RightForeArm -14.383327 -0.000000 63.910908
RightHand 21.434081 -0.000000 -25.978615
RightHandThumb1 -24.326973 -0.000000 -32.862282
LeftShoulder -21.634412 3.299349 23.670502
LeftArm 11.061501 -17.989800 -64.766633
LeftForeArm 25.636789 -0.000000 72.942600
LeftHand 2.725377 0.000000 13.968158
LeftHandThumb1 -26.253704 0.000000 33.147579
Head -7.908236 2.879578 -1.460175
252
root 0.686261 33.136522 -0.001041 11.353004 -9.214302 2.946973
RightUpLeg -19.793031 -11.616015 -8.144405
RightLeg 21.243917 -0.000000 -0.000000
RightFoot -16.049612 -6.409677 -0.140454
RightToeBase -4.254127 -0.000000 0.000000
LeftUpLeg -7.627497 5.635292 -6.040743
LeftLeg 4.962314 -0.000000 -0.000000
LeftFoot -13.247402 0.209726 -12.993050
LeftToeBase 12.018538 -0.000000 -0.000000
Spine -3.080399 -1.494407 -4.369506
RightShoulder -17.285542 -12.553767 -19.621625
RightArm 25.040661 13.450965 59.084071
RightForeArm -14.104883 0.000000 64.300690
RightHand 21.318262 0.000000 -25.589948
RightHandThumb1 -24.326973 -0.000000 -32.862282
LeftShoulder -21.623404 3.202031 23.647485
LeftArm 11.328201 -17.974990 -64.645332
LeftForeArm 25.490399 -0.000000 73.272971
LeftHand 2.982479 -0.000000 13.923896
LeftHandThumb1 -26.253704 0.000000 33.147579
Head -8.357260 2.881966 -1.545597
